<?xml version="1.0" encoding="UTF-8" standalone="no"?>
<!DOCTYPE svg PUBLIC "-//W3C//DTD SVG 1.1//EN"
 "http://www.w3.org/Graphics/SVG/1.1/DTD/svg11.dtd">
<!-- Generated by graphviz version 12.2.0 (20241103.1931)
 -->
<!-- Pages: 1 -->
<svg width="269pt" height="260pt"
 viewBox="0.00 0.00 269.16 260.00" xmlns="http://www.w3.org/2000/svg" xmlns:xlink="http://www.w3.org/1999/xlink">
<g id="graph0" class="graph" transform="scale(1 1) rotate(0) translate(4 256)">
<polygon fill="white" stroke="none" points="-4,4 -4,-256 265.16,-256 265.16,4 -4,4"/>
<!-- 0 -->
<g id="node1" class="node">
<title>0</title>
<ellipse fill="none" stroke="black" cx="178.58" cy="-234" rx="27" ry="18"/>
<text text-anchor="middle" x="178.58" y="-228.95" font-family="Times New Roman,serif" font-size="14.00">mul</text>
</g>
<!-- 1 -->
<g id="node2" class="node">
<title>1</title>
<ellipse fill="none" stroke="black" cx="136.58" cy="-162" rx="27" ry="18"/>
<text text-anchor="middle" x="136.58" y="-156.95" font-family="Times New Roman,serif" font-size="14.00">div</text>
</g>
<!-- 0&#45;&gt;1 -->
<g id="edge1" class="edge">
<title>0&#45;&gt;1</title>
<path fill="none" stroke="black" d="M168.84,-216.76C163.86,-208.46 157.67,-198.15 152.06,-188.79"/>
<polygon fill="black" stroke="black" points="155.19,-187.22 147.05,-180.45 149.19,-190.82 155.19,-187.22"/>
</g>
<!-- 6 -->
<g id="node7" class="node">
<title>6</title>
<ellipse fill="none" stroke="black" cx="221.58" cy="-162" rx="39.58" ry="18"/>
<text text-anchor="middle" x="221.58" y="-156.95" font-family="Times New Roman,serif" font-size="14.00">numero</text>
</g>
<!-- 0&#45;&gt;6 -->
<g id="edge6" class="edge">
<title>0&#45;&gt;6</title>
<path fill="none" stroke="black" d="M188.55,-216.76C193.58,-208.58 199.8,-198.45 205.49,-189.2"/>
<polygon fill="black" stroke="black" points="208.32,-191.28 210.57,-180.92 202.35,-187.61 208.32,-191.28"/>
</g>
<!-- 2 -->
<g id="node3" class="node">
<title>2</title>
<ellipse fill="none" stroke="black" cx="39.58" cy="-90" rx="39.58" ry="18"/>
<text text-anchor="middle" x="39.58" y="-84.95" font-family="Times New Roman,serif" font-size="14.00">numero</text>
</g>
<!-- 1&#45;&gt;2 -->
<g id="edge2" class="edge">
<title>1&#45;&gt;2</title>
<path fill="none" stroke="black" d="M118.79,-148.16C104.89,-138.13 85.27,-123.98 69.04,-112.26"/>
<polygon fill="black" stroke="black" points="71.33,-109.6 61.17,-106.58 67.23,-115.27 71.33,-109.6"/>
</g>
<!-- 4 -->
<g id="node5" class="node">
<title>4</title>
<ellipse fill="none" stroke="black" cx="136.58" cy="-90" rx="39.58" ry="18"/>
<text text-anchor="middle" x="136.58" y="-84.95" font-family="Times New Roman,serif" font-size="14.00">numero</text>
</g>
<!-- 1&#45;&gt;4 -->
<g id="edge4" class="edge">
<title>1&#45;&gt;4</title>
<path fill="none" stroke="black" d="M136.58,-143.7C136.58,-136.41 136.58,-127.73 136.58,-119.54"/>
<polygon fill="black" stroke="black" points="140.08,-119.62 136.58,-109.62 133.08,-119.62 140.08,-119.62"/>
</g>
<!-- 3 -->
<g id="node4" class="node">
<title>3</title>
<ellipse fill="none" stroke="black" cx="39.58" cy="-18" rx="27" ry="18"/>
<text text-anchor="middle" x="39.58" y="-12.95" font-family="Times New Roman,serif" font-size="14.00">54</text>
</g>
<!-- 2&#45;&gt;3 -->
<g id="edge3" class="edge">
<title>2&#45;&gt;3</title>
<path fill="none" stroke="black" d="M39.58,-71.7C39.58,-64.41 39.58,-55.73 39.58,-47.54"/>
<polygon fill="black" stroke="black" points="43.08,-47.62 39.58,-37.62 36.08,-47.62 43.08,-47.62"/>
</g>
<!-- 5 -->
<g id="node6" class="node">
<title>5</title>
<ellipse fill="none" stroke="black" cx="136.58" cy="-18" rx="27" ry="18"/>
<text text-anchor="middle" x="136.58" y="-12.95" font-family="Times New Roman,serif" font-size="14.00">6</text>
</g>
<!-- 4&#45;&gt;5 -->
<g id="edge5" class="edge">
<title>4&#45;&gt;5</title>
<path fill="none" stroke="black" d="M136.58,-71.7C136.58,-64.41 136.58,-55.73 136.58,-47.54"/>
<polygon fill="black" stroke="black" points="140.08,-47.62 136.58,-37.62 133.08,-47.62 140.08,-47.62"/>
</g>
<!-- 7 -->
<g id="node8" class="node">
<title>7</title>
<ellipse fill="none" stroke="black" cx="221.58" cy="-90" rx="27" ry="18"/>
<text text-anchor="middle" x="221.58" y="-84.95" font-family="Times New Roman,serif" font-size="14.00">3.2</text>
</g>
<!-- 6&#45;&gt;7 -->
<g id="edge7" class="edge">
<title>6&#45;&gt;7</title>
<path fill="none" stroke="black" d="M221.58,-143.7C221.58,-136.41 221.58,-127.73 221.58,-119.54"/>
<polygon fill="black" stroke="black" points="225.08,-119.62 221.58,-109.62 218.08,-119.62 225.08,-119.62"/>
</g>
</g>
</svg>
