<?xml version="1.0" encoding="UTF-8" standalone="no"?>
<!DOCTYPE svg PUBLIC "-//W3C//DTD SVG 1.1//EN"
 "http://www.w3.org/Graphics/SVG/1.1/DTD/svg11.dtd">
<!-- Generated by graphviz version 12.2.0 (20241103.1931)
 -->
<!-- Pages: 1 -->
<svg width="184pt" height="188pt"
 viewBox="0.00 0.00 184.16 188.00" xmlns="http://www.w3.org/2000/svg" xmlns:xlink="http://www.w3.org/1999/xlink">
<g id="graph0" class="graph" transform="scale(1 1) rotate(0) translate(4 184)">
<polygon fill="white" stroke="none" points="-4,4 -4,-184 180.16,-184 180.16,4 -4,4"/>
<!-- 0 -->
<g id="node1" class="node">
<title>0</title>
<ellipse fill="none" stroke="black" cx="87.58" cy="-162" rx="28.32" ry="18"/>
<text text-anchor="middle" x="87.58" y="-156.95" font-family="Times New Roman,serif" font-size="14.00">resta</text>
</g>
<!-- 1 -->
<g id="node2" class="node">
<title>1</title>
<ellipse fill="none" stroke="black" cx="39.58" cy="-90" rx="39.58" ry="18"/>
<text text-anchor="middle" x="39.58" y="-84.95" font-family="Times New Roman,serif" font-size="14.00">numero</text>
</g>
<!-- 0&#45;&gt;1 -->
<g id="edge1" class="edge">
<title>0&#45;&gt;1</title>
<path fill="none" stroke="black" d="M76.69,-145.12C70.94,-136.73 63.74,-126.24 57.22,-116.73"/>
<polygon fill="black" stroke="black" points="60.16,-114.82 51.62,-108.56 54.39,-118.78 60.16,-114.82"/>
</g>
<!-- 3 -->
<g id="node4" class="node">
<title>3</title>
<ellipse fill="none" stroke="black" cx="136.58" cy="-90" rx="39.58" ry="18"/>
<text text-anchor="middle" x="136.58" y="-84.95" font-family="Times New Roman,serif" font-size="14.00">numero</text>
</g>
<!-- 0&#45;&gt;3 -->
<g id="edge3" class="edge">
<title>0&#45;&gt;3</title>
<path fill="none" stroke="black" d="M98.7,-145.12C104.57,-136.73 111.91,-126.24 118.57,-116.73"/>
<polygon fill="black" stroke="black" points="121.43,-118.75 124.3,-108.55 115.69,-114.73 121.43,-118.75"/>
</g>
<!-- 2 -->
<g id="node3" class="node">
<title>2</title>
<ellipse fill="none" stroke="black" cx="39.58" cy="-18" rx="27" ry="18"/>
<text text-anchor="middle" x="39.58" y="-12.95" font-family="Times New Roman,serif" font-size="14.00">32</text>
</g>
<!-- 1&#45;&gt;2 -->
<g id="edge2" class="edge">
<title>1&#45;&gt;2</title>
<path fill="none" stroke="black" d="M39.58,-71.7C39.58,-64.41 39.58,-55.73 39.58,-47.54"/>
<polygon fill="black" stroke="black" points="43.08,-47.62 39.58,-37.62 36.08,-47.62 43.08,-47.62"/>
</g>
<!-- 4 -->
<g id="node5" class="node">
<title>4</title>
<ellipse fill="none" stroke="black" cx="136.58" cy="-18" rx="27" ry="18"/>
<text text-anchor="middle" x="136.58" y="-12.95" font-family="Times New Roman,serif" font-size="14.00">6</text>
</g>
<!-- 3&#45;&gt;4 -->
<g id="edge4" class="edge">
<title>3&#45;&gt;4</title>
<path fill="none" stroke="black" d="M136.58,-71.7C136.58,-64.41 136.58,-55.73 136.58,-47.54"/>
<polygon fill="black" stroke="black" points="140.08,-47.62 136.58,-37.62 133.08,-47.62 140.08,-47.62"/>
</g>
</g>
</svg>
