<?xml version="1.0" encoding="UTF-8" standalone="no"?>
<!DOCTYPE svg PUBLIC "-//W3C//DTD SVG 1.1//EN"
 "http://www.w3.org/Graphics/SVG/1.1/DTD/svg11.dtd">
<!-- Generated by graphviz version 12.2.0 (20241103.1931)
 -->
<!-- Pages: 1 -->
<svg width="355pt" height="332pt"
 viewBox="0.00 0.00 355.16 332.00" xmlns="http://www.w3.org/2000/svg" xmlns:xlink="http://www.w3.org/1999/xlink">
<g id="graph0" class="graph" transform="scale(1 1) rotate(0) translate(4 328)">
<polygon fill="white" stroke="none" points="-4,4 -4,-328 351.16,-328 351.16,4 -4,4"/>
<!-- 0 -->
<g id="node1" class="node">
<title>0</title>
<ellipse fill="none" stroke="black" cx="264.58" cy="-306" rx="30.88" ry="18"/>
<text text-anchor="middle" x="264.58" y="-300.95" font-family="Times New Roman,serif" font-size="14.00">suma</text>
</g>
<!-- 1 -->
<g id="node2" class="node">
<title>1</title>
<ellipse fill="none" stroke="black" cx="221.58" cy="-234" rx="28.32" ry="18"/>
<text text-anchor="middle" x="221.58" y="-228.95" font-family="Times New Roman,serif" font-size="14.00">resta</text>
</g>
<!-- 0&#45;&gt;1 -->
<g id="edge1" class="edge">
<title>0&#45;&gt;1</title>
<path fill="none" stroke="black" d="M254.61,-288.76C249.51,-280.46 243.17,-270.15 237.42,-260.79"/>
<polygon fill="black" stroke="black" points="240.51,-259.13 232.29,-252.44 234.54,-262.79 240.51,-259.13"/>
</g>
<!-- 9 -->
<g id="node10" class="node">
<title>9</title>
<ellipse fill="none" stroke="black" cx="307.58" cy="-234" rx="39.58" ry="18"/>
<text text-anchor="middle" x="307.58" y="-228.95" font-family="Times New Roman,serif" font-size="14.00">numero</text>
</g>
<!-- 0&#45;&gt;9 -->
<g id="edge9" class="edge">
<title>0&#45;&gt;9</title>
<path fill="none" stroke="black" d="M274.55,-288.76C279.58,-280.58 285.8,-270.45 291.49,-261.2"/>
<polygon fill="black" stroke="black" points="294.32,-263.28 296.57,-252.92 288.35,-259.61 294.32,-263.28"/>
</g>
<!-- 2 -->
<g id="node3" class="node">
<title>2</title>
<ellipse fill="none" stroke="black" cx="134.58" cy="-162" rx="30.88" ry="18"/>
<text text-anchor="middle" x="134.58" y="-156.95" font-family="Times New Roman,serif" font-size="14.00">suma</text>
</g>
<!-- 1&#45;&gt;2 -->
<g id="edge2" class="edge">
<title>1&#45;&gt;2</title>
<path fill="none" stroke="black" d="M204.39,-219.17C191.96,-209.17 174.94,-195.47 160.82,-184.11"/>
<polygon fill="black" stroke="black" points="163.19,-181.53 153.21,-177.99 158.81,-186.99 163.19,-181.53"/>
</g>
<!-- 7 -->
<g id="node8" class="node">
<title>7</title>
<ellipse fill="none" stroke="black" cx="222.58" cy="-162" rx="39.58" ry="18"/>
<text text-anchor="middle" x="222.58" y="-156.95" font-family="Times New Roman,serif" font-size="14.00">numero</text>
</g>
<!-- 1&#45;&gt;7 -->
<g id="edge7" class="edge">
<title>1&#45;&gt;7</title>
<path fill="none" stroke="black" d="M221.83,-215.7C221.93,-208.41 222.06,-199.73 222.17,-191.54"/>
<polygon fill="black" stroke="black" points="225.67,-191.67 222.31,-181.62 218.67,-191.57 225.67,-191.67"/>
</g>
<!-- 3 -->
<g id="node4" class="node">
<title>3</title>
<ellipse fill="none" stroke="black" cx="39.58" cy="-90" rx="39.58" ry="18"/>
<text text-anchor="middle" x="39.58" y="-84.95" font-family="Times New Roman,serif" font-size="14.00">numero</text>
</g>
<!-- 2&#45;&gt;3 -->
<g id="edge3" class="edge">
<title>2&#45;&gt;3</title>
<path fill="none" stroke="black" d="M116.26,-147.5C102.87,-137.63 84.42,-124.04 68.97,-112.66"/>
<polygon fill="black" stroke="black" points="71.16,-109.92 61.03,-106.81 67.01,-115.56 71.16,-109.92"/>
</g>
<!-- 5 -->
<g id="node6" class="node">
<title>5</title>
<ellipse fill="none" stroke="black" cx="136.58" cy="-90" rx="39.58" ry="18"/>
<text text-anchor="middle" x="136.58" y="-84.95" font-family="Times New Roman,serif" font-size="14.00">numero</text>
</g>
<!-- 2&#45;&gt;5 -->
<g id="edge5" class="edge">
<title>2&#45;&gt;5</title>
<path fill="none" stroke="black" d="M135.07,-143.7C135.28,-136.41 135.53,-127.73 135.76,-119.54"/>
<polygon fill="black" stroke="black" points="139.26,-119.71 136.05,-109.62 132.26,-119.51 139.26,-119.71"/>
</g>
<!-- 4 -->
<g id="node5" class="node">
<title>4</title>
<ellipse fill="none" stroke="black" cx="39.58" cy="-18" rx="27.3" ry="18"/>
<text text-anchor="middle" x="39.58" y="-12.95" font-family="Times New Roman,serif" font-size="14.00">28.8</text>
</g>
<!-- 3&#45;&gt;4 -->
<g id="edge4" class="edge">
<title>3&#45;&gt;4</title>
<path fill="none" stroke="black" d="M39.58,-71.7C39.58,-64.41 39.58,-55.73 39.58,-47.54"/>
<polygon fill="black" stroke="black" points="43.08,-47.62 39.58,-37.62 36.08,-47.62 43.08,-47.62"/>
</g>
<!-- 6 -->
<g id="node7" class="node">
<title>6</title>
<ellipse fill="none" stroke="black" cx="136.58" cy="-18" rx="27" ry="18"/>
<text text-anchor="middle" x="136.58" y="-12.95" font-family="Times New Roman,serif" font-size="14.00">3.2</text>
</g>
<!-- 5&#45;&gt;6 -->
<g id="edge6" class="edge">
<title>5&#45;&gt;6</title>
<path fill="none" stroke="black" d="M136.58,-71.7C136.58,-64.41 136.58,-55.73 136.58,-47.54"/>
<polygon fill="black" stroke="black" points="140.08,-47.62 136.58,-37.62 133.08,-47.62 140.08,-47.62"/>
</g>
<!-- 8 -->
<g id="node9" class="node">
<title>8</title>
<ellipse fill="none" stroke="black" cx="222.58" cy="-90" rx="27" ry="18"/>
<text text-anchor="middle" x="222.58" y="-84.95" font-family="Times New Roman,serif" font-size="14.00">3.2</text>
</g>
<!-- 7&#45;&gt;8 -->
<g id="edge8" class="edge">
<title>7&#45;&gt;8</title>
<path fill="none" stroke="black" d="M222.58,-143.7C222.58,-136.41 222.58,-127.73 222.58,-119.54"/>
<polygon fill="black" stroke="black" points="226.08,-119.62 222.58,-109.62 219.08,-119.62 226.08,-119.62"/>
</g>
<!-- 10 -->
<g id="node11" class="node">
<title>10</title>
<ellipse fill="none" stroke="black" cx="307.58" cy="-162" rx="27" ry="18"/>
<text text-anchor="middle" x="307.58" y="-156.95" font-family="Times New Roman,serif" font-size="14.00">3.2</text>
</g>
<!-- 9&#45;&gt;10 -->
<g id="edge10" class="edge">
<title>9&#45;&gt;10</title>
<path fill="none" stroke="black" d="M307.58,-215.7C307.58,-208.41 307.58,-199.73 307.58,-191.54"/>
<polygon fill="black" stroke="black" points="311.08,-191.62 307.58,-181.62 304.08,-191.62 311.08,-191.62"/>
</g>
</g>
</svg>
